<?xml version="1.0" encoding="UTF-8"?>
<svg version="1.1" xmlns="http://www.w3.org/2000/svg" width="1080" height="1080">
<path d="M0 0 C356.4 0 712.8 0 1080 0 C1080 356.4 1080 712.8 1080 1080 C723.6 1080 367.2 1080 0 1080 C0 723.6 0 367.2 0 0 Z " fill="#FFFEFE" transform="translate(0,0)"/>
<path d="M0 0 C1.56816758 -0.00134737 3.13633484 -0.00313167 4.70450148 -0.00531223 C9.02136122 -0.01004072 13.33819986 -0.00854105 17.65506063 -0.00603446 C22.34867451 -0.00440176 27.04228386 -0.00854191 31.73589629 -0.01194364 C39.96470325 -0.01709961 48.19350432 -0.0185145 56.42231274 -0.01748753 C68.65886706 -0.0159641 80.89541486 -0.02012101 93.13196791 -0.02536215 C116.25650883 -0.03503992 139.38104753 -0.03784655 162.50559024 -0.03841921 C180.36047547 -0.03887849 198.21535984 -0.04093544 216.07024479 -0.04411983 C221.2069477 -0.04501736 226.34365062 -0.04590717 231.48035353 -0.04679471 C232.75729469 -0.04701576 234.03423585 -0.04723681 235.34987219 -0.04746456 C271.27413404 -0.05361987 307.19839544 -0.05757089 343.12265778 -0.05712128 C344.49113704 -0.0571055 345.8596163 -0.05708976 347.22809556 -0.05707407 C353.40664649 -0.05700069 359.58519743 -0.05691252 365.76374837 -0.05682018 C368.51891432 -0.05677906 371.27408027 -0.05673891 374.02924622 -0.05669887 C375.40825603 -0.05667848 376.78726584 -0.05665746 378.16627565 -0.05663581 C421.7751971 -0.05595552 465.38411042 -0.06327383 508.99302959 -0.07717609 C519.98107844 -0.08067711 530.9691273 -0.08414657 541.95717621 -0.08744049 C542.63375365 -0.08764336 543.3103311 -0.08784624 544.00741089 -0.08805526 C580.53728491 -0.09894267 617.06715904 -0.1009176 653.59703463 -0.10021287 C658.73468061 -0.10013824 663.87232659 -0.10008953 669.00997257 -0.10005856 C670.27502476 -0.1000469 671.54007694 -0.10003525 672.84346404 -0.10002324 C693.21907779 -0.09999244 713.5946847 -0.10638371 733.97029642 -0.11499082 C754.44018454 -0.12345905 774.91006262 -0.12446376 795.37995151 -0.1178815 C807.546407 -0.1141804 819.71283204 -0.1160349 831.87928432 -0.12582384 C840.00285856 -0.13180866 848.12641067 -0.13054509 856.24998389 -0.12335334 C860.88065296 -0.11945918 865.51126295 -0.11873253 870.14192794 -0.12681069 C874.35650067 -0.1340987 878.57096523 -0.13214222 882.78553319 -0.12288683 C884.29882792 -0.12116879 885.81213116 -0.12278318 887.32541722 -0.12818803 C906.44757127 -0.19189786 920.7607897 2.85330022 934.93223858 16.19113445 C950.14683309 31.89652234 949.05566205 51.93578034 949.04161358 72.2497282 C949.04550735 74.60040137 949.04984341 76.95107384 949.05459881 79.30174541 C949.06203223 84.21289641 949.06179036 89.12397548 949.05650616 94.03512859 C949.05071079 100.30002375 949.06765855 106.56462335 949.09085083 112.82946968 C949.10564574 117.6793363 949.10645212 122.52913264 949.1033411 127.37901783 C949.10385127 129.68767222 949.10903111 131.99633086 949.11915302 134.30496311 C949.19481806 153.97119977 948.26835634 172.2710426 934.17833233 187.56613445 C921.4111103 199.41583441 905.40998248 202.27923452 888.57408428 202.27048016 C886.93579411 202.2756918 886.93579411 202.2756918 885.26440716 202.28100872 C882.90294492 202.28833428 880.54147593 202.29369662 878.18000507 202.29729939 C874.43298772 202.3045044 870.68609833 202.32020127 866.93912029 202.33864117 C856.28880338 202.39091988 845.63858425 202.43949087 834.98814678 202.45456219 C828.46245784 202.46389084 821.93703914 202.49410527 815.41147709 202.535882 C812.93538859 202.54813641 810.45925399 202.5533235 807.98313618 202.55108356 C789.49273675 202.53847237 773.93949989 203.11594846 759.49083233 216.15988445 C746.79195695 229.43598144 744.28374682 246.14736317 744.36973858 263.85519695 C744.36301687 265.21892586 744.35442501 266.58264666 744.34408855 267.94635296 C744.30459523 273.65619334 744.30278205 279.36594538 744.30504131 285.07590008 C744.3050929 288.60006851 744.2857026 292.12374699 744.25570774 295.64778042 C744.24507304 297.60610683 744.25693858 299.56451523 744.26953411 301.52283001 C744.14991307 316.00783982 739.49154712 328.31350542 729.49083233 338.87863445 C722.2274771 345.76483053 714.45982854 349.85814626 704.74083233 352.12863445 C704.0444906 352.3021801 703.34814888 352.47572574 702.63070589 352.65453035 C698.80904661 353.28150046 695.03938479 353.26714754 691.17863655 353.25726891 C689.88123703 353.25989846 689.88123703 353.25989846 688.55762741 353.26258114 C685.64532678 353.26725094 682.73307587 353.2647731 679.82077312 353.26234722 C677.71723676 353.26421471 675.61370074 353.26651516 673.51016527 353.26921254 C667.71842123 353.27534484 661.92669159 353.27519527 656.13494503 353.27401817 C649.89275236 353.27381452 643.65056435 353.27932957 637.40837383 353.28407574 C625.17343643 353.29239113 612.9385056 353.29514394 600.70356595 353.29568812 C590.7586109 353.29614754 580.81365742 353.29820529 570.86870289 353.30138874 C568.00666652 353.30228628 565.14463016 353.3031761 562.28259379 353.30406362 C561.21533171 353.30439519 561.21533171 353.30439519 560.12650879 353.30473346 C540.10885322 353.31088894 520.0911982 353.31483391 500.07354164 353.31439018 C499.31863275 353.3143746 498.56372386 353.31435903 497.78593894 353.31434297 C493.95971194 353.31425987 490.13348494 353.31416083 486.30725794 353.31405827 C485.16739879 353.31402835 485.16739879 353.31402835 484.00451218 353.31399783 C482.46779499 353.31395739 480.9310778 353.31391559 479.39436061 353.31387244 C455.49430148 353.3132599 431.59425654 353.32076163 407.69420147 353.334445 C380.84359366 353.34981129 353.99299517 353.35841086 327.14238268 353.35748178 C324.27814583 353.35740715 321.41390898 353.35735844 318.54967213 353.35732746 C317.84442381 353.35731581 317.13917549 353.35730415 316.41255601 353.35729215 C305.07030137 353.35726139 293.72805906 353.36364349 282.38580808 353.37225973 C270.98137199 353.38074385 259.57695882 353.38154894 248.17251956 353.3751504 C241.99594418 353.37188332 235.81941343 353.37183532 229.64284229 353.38050365 C223.98564368 353.38836136 218.32852513 353.38694459 212.67132849 353.37821952 C210.62753602 353.37668292 208.5837376 353.37850674 206.53995215 353.3840796 C179.72740248 353.45233263 179.72740248 353.45233263 168.61583233 347.62863445 C167.93915508 347.27752605 167.26247784 346.92641766 166.56529522 346.56466961 C153.90630316 339.66525473 147.57677851 329.44961717 142.6763792 316.26462078 C141.0783475 310.5075038 141.42195479 304.48475601 141.39708233 298.55832195 C141.37473025 296.55096044 141.35236739 294.54359898 141.32940197 292.53624439 C141.29184228 289.02543797 141.26675091 285.51454292 141.24083233 282.00363445 C141.2098744 277.8332284 141.17645315 273.66293253 141.12889385 269.49267864 C141.10017928 266.90265158 141.07956772 264.31251691 141.06859112 261.72235394 C140.87737779 244.64996082 138.38037074 230.19621708 126.74083233 217.12863445 C118.13478746 209.35543264 106.69312345 203.02614756 94.86082745 202.99060345 C93.38928707 202.98242344 93.38928707 202.98242344 91.88801861 202.97407818 C90.8178651 202.97303585 89.7477116 202.97199352 88.6451292 202.97091961 C86.94678432 202.96329853 86.94678432 202.96329853 85.21412945 202.95552349 C82.75328629 202.94481929 80.2924334 202.93619931 77.83157635 202.92940426 C73.92973553 202.91760671 70.02800496 202.89814923 66.12620831 202.8762846 C55.03131856 202.81449825 43.93643305 202.76048434 32.84141827 202.72726727 C26.05453196 202.70685944 19.26785268 202.67089367 12.48108196 202.62650967 C9.90089557 202.6123968 7.32067388 202.60363794 4.74045086 202.60045528 C1.11732086 202.59551507 -2.5052857 202.57227466 -6.1283083 202.54513836 C-7.70924778 202.54964756 -7.70924778 202.54964756 -9.32212543 202.55424786 C-23.54871327 202.39699633 -37.75939661 198.10024802 -48.25916767 188.12863445 C-59.75314603 174.94373563 -63.57804876 160.21562571 -63.53382587 143.06442547 C-63.53893681 142.0189555 -63.54404774 140.97348553 -63.54931355 139.89633465 C-63.56309914 136.47501013 -63.56226129 133.05388952 -63.55994892 129.6325407 C-63.56384152 127.23320219 -63.56817734 124.83386435 -63.57293415 122.4345274 C-63.58037237 117.41904746 -63.58012221 112.40363795 -63.5748415 107.38815594 C-63.569046 100.98525259 -63.58599184 94.58263843 -63.60918617 88.17978287 C-63.6239703 83.22873044 -63.62478891 78.27774696 -63.62167645 73.32667637 C-63.62218716 70.96695603 -63.62737769 68.60723158 -63.63748837 66.24753284 C-63.71131328 46.61243654 -62.87985684 30.37709453 -48.63026142 15.44894695 C-34.52214867 1.64298489 -18.89604049 -0.02797174 0 0 Z " fill="#FFF3EC" transform="translate(97.25916767120361,362.8713655471802)"/>
<path d="M0 0 C9.51021959 -0.04644937 19.02039981 -0.08193306 28.53070831 -0.10362434 C32.94727094 -0.11403785 37.36375565 -0.1281524 41.78027344 -0.15087891 C46.04669454 -0.17269433 50.31304095 -0.18458691 54.57951355 -0.18975449 C56.20290807 -0.19343467 57.82629875 -0.200621 59.44966125 -0.21146011 C61.73280505 -0.22609092 64.0156446 -0.22797315 66.29882812 -0.22705078 C67.59566528 -0.231492 68.89250244 -0.23593323 70.2286377 -0.24050903 C79.26460418 0.33573673 89.54936548 3.375024 96 10 C101.91293588 18.51520595 103.98874939 25.62509439 103 36 C101.34066968 42.53302053 98.38952744 48.78675831 93 53 C86.94788813 56.27545615 81.89520327 58.1298836 75 58 C79.00974293 64.62895279 83.03671279 71.247158 87.07958984 77.85595703 C88.31002698 79.87039505 89.53721892 81.88682103 90.76025391 83.90576172 C92.35002699 86.52741918 93.95418206 89.13969075 95.5625 91.75 C96.0378418 92.54059814 96.51318359 93.33119629 97.00292969 94.14575195 C99.58440168 98.29873396 101.54541408 100.71229222 106 103 C106 103.66 106 104.32 106 105 C97.09 105 88.18 105 79 105 C79 104.34 79 103.68 79 103 C80.32 102.67 81.64 102.34 83 102 C82.42090341 97.70997793 80.90311434 94.82638908 78.61328125 91.17578125 C77.92169922 90.06396484 77.23011719 88.95214844 76.51757812 87.80664062 C75.7828172 86.64175982 75.04778978 85.47704706 74.3125 84.3125 C73.59629068 83.16776445 72.88078954 82.0225855 72.16601562 80.87695312 C70.7641223 78.631076 69.34204185 76.39766547 67.89941406 74.17773438 C66 71 66 71 64.85839844 67.97851562 C63.57284398 64.78906753 62.71392953 63.14504101 60 61 C53.44291138 59.20868865 46.34217915 59.7467344 39.625 59.875 C33.14875 59.91625 26.6725 59.9575 20 60 C20 74.19 20 88.38 20 103 C21.32 103 22.64 103 24 103 C24 103.66 24 104.32 24 105 C16.08 105 8.16 105 0 105 C0 104.34 0 103.68 0 103 C1.98 102.505 1.98 102.505 4 102 C4 69.33 4 36.66 4 3 C2.68 2.67 1.36 2.34 0 2 C0 1.34 0 0.68 0 0 Z " fill="#FF9350" transform="translate(761,391)"/>
<path d="M0 0 C0.87914062 0.4125 1.75828125 0.825 2.6640625 1.25 C12.35880794 6.40490996 17.95423486 14.23589736 21.30859375 24.5546875 C21.65083984 25.76511719 21.65083984 25.76511719 22 27 C22.19335938 27.64839844 22.38671875 28.29679688 22.5859375 28.96484375 C24.95610087 40.61442032 22.07233669 52.04008268 16 62 C9.17621318 71.52001478 0.60832722 76.3455249 -10.86035156 78.67041016 C-24.91054575 80.83469155 -38.33930284 79.59260287 -50.375 71.6875 C-59.22258599 64.99164692 -65.37344037 56.21994196 -67 45 C-67.90113085 31.37962883 -66.17984931 19.76749509 -57 9 C-41.95800238 -5.09315176 -18.78411225 -9.02539928 0 0 Z " fill="#FFF3EB" transform="translate(506,557)"/>
<path d="M0 0 C0.87914062 0.4125 1.75828125 0.825 2.6640625 1.25 C12.35880794 6.40490996 17.95423486 14.23589736 21.30859375 24.5546875 C21.65083984 25.76511719 21.65083984 25.76511719 22 27 C22.19335938 27.64839844 22.38671875 28.29679687 22.5859375 28.96484375 C24.95610087 40.61442032 22.07233669 52.04008268 16 62 C9.17621318 71.52001478 0.60832722 76.3455249 -10.86035156 78.67041016 C-24.91054575 80.83469155 -38.33930284 79.59260287 -50.375 71.6875 C-59.22258599 64.99164692 -65.37344037 56.21994196 -67 45 C-67.90113085 31.37962883 -66.17984931 19.76749509 -57 9 C-41.95800238 -5.09315176 -18.78411225 -9.02539928 0 0 Z " fill="#FFF3EB" transform="translate(702,406)"/>
<path d="M0 0 C0.87914062 0.4125 1.75828125 0.825 2.6640625 1.25 C12.35880794 6.40490996 17.95423486 14.23589736 21.30859375 24.5546875 C21.65083984 25.76511719 21.65083984 25.76511719 22 27 C22.19335938 27.64839844 22.38671875 28.29679687 22.5859375 28.96484375 C24.95610087 40.61442032 22.07233669 52.04008268 16 62 C9.17621318 71.52001478 0.60832722 76.3455249 -10.86035156 78.67041016 C-24.91054575 80.83469155 -38.33930284 79.59260287 -50.375 71.6875 C-59.22258599 64.99164692 -65.37344037 56.21994196 -67 45 C-67.90113085 31.37962883 -66.17984931 19.76749509 -57 9 C-41.95800238 -5.09315176 -18.78411225 -9.02539928 0 0 Z " fill="#FFF3EB" transform="translate(310,406)"/>
<path d="M0 0 C9.9 0 19.8 0 30 0 C30 0.66 30 1.32 30 2 C29.01 2.33 28.02 2.66 27 3 C27.55715597 7.48764566 28.71109399 10.88782603 30.7734375 14.90234375 C31.34578125 16.02890381 31.918125 17.15546387 32.5078125 18.31616211 C32.96462402 19.20197464 32.96462402 19.20197464 33.43066406 20.10568237 C35.04064114 23.22870699 36.62367653 26.36538756 38.2109375 29.5 C38.53205505 30.1323204 38.85317261 30.76464081 39.184021 31.41612244 C42.20880986 37.3821999 45.12465184 43.39800219 48 49.4375 C48.66938599 50.84322266 48.66938599 50.84322266 49.35229492 52.27734375 C52.61955878 59.16125204 55.84481072 66.0639088 59 73 C66.12890978 59.85607259 72.71942381 46.47509813 79.20117188 33.00415039 C79.52771759 32.32595749 79.85426331 31.64776459 80.19070435 30.94902039 C80.83783467 29.60408743 81.48390684 28.25864477 82.12887573 26.91267395 C83.72621516 23.59051331 85.35387721 20.28948318 87.04541016 17.01416016 C87.37197098 16.37811356 87.6985318 15.74206696 88.0349884 15.08674622 C88.931148 13.34906442 89.83695547 11.6163679 90.7434082 9.8840332 C92.26629218 6.91314284 92.26629218 6.91314284 92 3 C91.01 2.67 90.02 2.34 89 2 C89 1.34 89 0.68 89 0 C98.57 0 108.14 0 118 0 C118 0.66 118 1.32 118 2 C117.01 2.33 116.02 2.66 115 3 C115 35.67 115 68.34 115 102 C116.485 102.495 116.485 102.495 118 103 C118 103.66 118 104.32 118 105 C110.74 105 103.48 105 96 105 C96 104.34 96 103.68 96 103 C96.99 102.67 97.98 102.34 99 102 C99 76.26 99 50.52 99 24 C96.20789063 29.61902344 93.41578125 35.23804688 90.5390625 41.02734375 C88.77149247 44.5778056 87.00357354 48.12808488 85.234375 51.67773438 C82.42394126 57.31656135 79.61484957 62.95603022 76.81347656 68.59936523 C74.55582815 73.14716858 72.29239356 77.69204761 70.02485275 82.23492622 C69.1591494 83.97189207 68.2955651 85.70991567 67.4341011 87.44898796 C66.23064009 89.87756772 65.01981767 92.30233636 63.80712891 94.72631836 C63.44964066 95.45208069 63.0921524 96.17784302 62.72383118 96.92559814 C60.22810432 101.88594784 60.22810432 101.88594784 58 103 C37.01157627 60.11417053 37.01157627 60.11417053 30.625 46.75 C30.24110107 45.9468335 29.85720215 45.14366699 29.46166992 44.31616211 C25.93001382 36.8978979 22.4746402 29.44565756 19 22 C19 48.4 19 74.8 19 102 C20.485 102.495 20.485 102.495 22 103 C22 103.66 22 104.32 22 105 C14.74 105 7.48 105 0 105 C0 104.34 0 103.68 0 103 C1.485 102.505 1.485 102.505 3 102 C3 69.33 3 36.66 3 3 C2.01 2.67 1.02 2.34 0 2 C0 1.34 0 0.68 0 0 Z " fill="#FF924F" transform="translate(369,391)"/>
<path d="M0 0 C0.66 0 1.32 0 2 0 C2 6.93 2 13.86 2 21 C1.34 21 0.68 21 0 21 C-0.495 19.515 -0.495 19.515 -1 18 C-26.41 17.67 -51.82 17.34 -78 17 C-78 27.89 -78 38.78 -78 50 C-59.85 50 -41.7 50 -23 50 C-22.67 48.35 -22.34 46.7 -22 45 C-21.34 45 -20.68 45 -20 45 C-20 52.59 -20 60.18 -20 68 C-20.66 68 -21.32 68 -22 68 C-22.33 66.68 -22.66 65.36 -23 64 C-41.15 63.67 -59.3 63.34 -78 63 C-78 73.89 -78 84.78 -78 96 C-52.59 95.67 -27.18 95.34 -1 95 C-0.505 93.515 -0.505 93.515 0 92 C0.66 92 1.32 92 2 92 C2 98.93 2 105.86 2 113 C1.34 113 0.68 113 0 113 C-0.33 112.01 -0.66 111.02 -1 110 C-32.68 109.67 -64.36 109.34 -97 109 C-97 108.34 -97 107.68 -97 107 C-95.68 107 -94.36 107 -93 107 C-93.33 74 -93.66 41 -94 7 C-94.99 6.67 -95.98 6.34 -97 6 C-97 5.34 -97 4.68 -97 4 C-49.48 3.505 -49.48 3.505 -1 3 C-0.67 2.01 -0.34 1.02 0 0 Z " fill="#FF9351" transform="translate(773,538)"/>
<path d="M0 0 C7.45314957 6.46014012 13.29103238 13.69490866 17.109375 22.82421875 C17.46902344 23.65050781 17.82867188 24.47679687 18.19921875 25.328125 C19.52819555 30.43299298 19.43793947 35.38363685 19.421875 40.63671875 C19.43798828 41.67892578 19.45410156 42.72113281 19.47070312 43.79492188 C19.47483373 50.37496848 18.67806842 55.76086248 16.109375 61.82421875 C15.7071875 62.78070313 15.305 63.7371875 14.890625 64.72265625 C7.71708979 78.58857491 -2.80571043 86.13244585 -16.890625 91.82421875 C-17.83035156 92.20578125 -18.77007813 92.58734375 -19.73828125 92.98046875 C-35.08889625 97.86372772 -54.30727531 96.45906085 -68.890625 89.82421875 C-77.64803522 85.14151097 -84.97097976 79.68868872 -90.578125 71.44921875 C-91.69767578 69.82886719 -91.69767578 69.82886719 -92.83984375 68.17578125 C-99.78246541 56.82955385 -101.84607551 43.49036616 -99.203125 30.42578125 C-94.83317418 15.09453711 -86.82528249 3.47629754 -72.953125 -4.61328125 C-67.1762136 -7.82441692 -61.38259556 -9.94839307 -54.890625 -11.17578125 C-53.9728125 -11.35753906 -53.055 -11.53929687 -52.109375 -11.7265625 C-33.73064508 -14.29155515 -15.07288915 -11.3454044 0 0 Z M-75.890625 13.82421875 C-83.97753492 24.97464043 -85.87224648 35.31328979 -84.890625 48.82421875 C-83.2694152 58.86220943 -77.9826024 67.90058411 -70.09765625 74.29296875 C-57.53853821 83.00655153 -43.64522319 84.55271394 -28.76123047 82.53564453 C-17.19343163 80.36321949 -8.21613948 74.66125298 -1.359375 65.15234375 C2.31546055 59.32733847 4.6397781 53.75077305 5.109375 46.82421875 C5.17253906 45.95152344 5.23570312 45.07882812 5.30078125 44.1796875 C5.7796498 32.39334224 2.61594512 22.47992953 -4.6953125 13.19921875 C-10.88718313 6.5005402 -18.34281438 3.55671559 -26.890625 0.82421875 C-27.880625 0.49421875 -28.870625 0.16421875 -29.890625 -0.17578125 C-46.91100723 -1.53494063 -63.77298094 0.51515165 -75.890625 13.82421875 Z " fill="#FF924F" transform="translate(719.890625,402.17578125)"/>
<path d="M0 0 C7.45314957 6.46014012 13.29103238 13.69490866 17.109375 22.82421875 C17.46902344 23.65050781 17.82867187 24.47679687 18.19921875 25.328125 C19.52819555 30.43299298 19.43793947 35.38363685 19.421875 40.63671875 C19.43798828 41.67892578 19.45410156 42.72113281 19.47070312 43.79492188 C19.47483373 50.37496848 18.67806842 55.76086248 16.109375 61.82421875 C15.7071875 62.78070313 15.305 63.7371875 14.890625 64.72265625 C7.71708979 78.58857491 -2.80571043 86.13244585 -16.890625 91.82421875 C-17.83035156 92.20578125 -18.77007812 92.58734375 -19.73828125 92.98046875 C-35.08889625 97.86372772 -54.30727531 96.45906085 -68.890625 89.82421875 C-77.64803522 85.14151097 -84.97097976 79.68868872 -90.578125 71.44921875 C-91.69767578 69.82886719 -91.69767578 69.82886719 -92.83984375 68.17578125 C-99.78246541 56.82955385 -101.84607551 43.49036616 -99.203125 30.42578125 C-94.83317418 15.09453711 -86.82528249 3.47629754 -72.953125 -4.61328125 C-67.1762136 -7.82441692 -61.38259556 -9.94839307 -54.890625 -11.17578125 C-53.9728125 -11.35753906 -53.055 -11.53929687 -52.109375 -11.7265625 C-33.73064508 -14.29155515 -15.07288915 -11.3454044 0 0 Z M-75.890625 13.82421875 C-83.97753492 24.97464043 -85.87224648 35.31328979 -84.890625 48.82421875 C-83.2694152 58.86220943 -77.9826024 67.90058411 -70.09765625 74.29296875 C-57.53853821 83.00655153 -43.64522319 84.55271394 -28.76123047 82.53564453 C-17.19343163 80.36321949 -8.21613948 74.66125298 -1.359375 65.15234375 C2.31546055 59.32733847 4.6397781 53.75077305 5.109375 46.82421875 C5.17253906 45.95152344 5.23570312 45.07882812 5.30078125 44.1796875 C5.7796498 32.39334224 2.61594512 22.47992953 -4.6953125 13.19921875 C-10.88718313 6.5005402 -18.34281438 3.55671559 -26.890625 0.82421875 C-27.880625 0.49421875 -28.870625 0.16421875 -29.890625 -0.17578125 C-46.91100723 -1.53494063 -63.77298094 0.51515165 -75.890625 13.82421875 Z " fill="#FF924F" transform="translate(327.890625,402.17578125)"/>
<path d="M0 0 C7.45314957 6.46014012 13.29103238 13.69490866 17.109375 22.82421875 C17.46902344 23.65050781 17.82867188 24.47679687 18.19921875 25.328125 C19.52819555 30.43299298 19.43793947 35.38363685 19.421875 40.63671875 C19.43798828 41.67892578 19.45410156 42.72113281 19.47070312 43.79492188 C19.47483373 50.37496848 18.67806842 55.76086248 16.109375 61.82421875 C15.7071875 62.78070312 15.305 63.7371875 14.890625 64.72265625 C7.71708979 78.58857491 -2.80571043 86.13244585 -16.890625 91.82421875 C-17.83035156 92.20578125 -18.77007812 92.58734375 -19.73828125 92.98046875 C-35.08889625 97.86372772 -54.30727531 96.45906085 -68.890625 89.82421875 C-77.64803522 85.14151097 -84.97097976 79.68868872 -90.578125 71.44921875 C-91.69767578 69.82886719 -91.69767578 69.82886719 -92.83984375 68.17578125 C-99.78246541 56.82955385 -101.84607551 43.49036616 -99.203125 30.42578125 C-94.83317418 15.09453711 -86.82528249 3.47629754 -72.953125 -4.61328125 C-67.1762136 -7.82441692 -61.38259556 -9.94839307 -54.890625 -11.17578125 C-53.9728125 -11.35753906 -53.055 -11.53929687 -52.109375 -11.7265625 C-33.73064508 -14.29155515 -15.07288915 -11.3454044 0 0 Z M-75.890625 13.82421875 C-83.97753492 24.97464043 -85.87224648 35.31328979 -84.890625 48.82421875 C-83.2694152 58.86220943 -77.9826024 67.90058411 -70.09765625 74.29296875 C-57.53853821 83.00655153 -43.64522319 84.55271394 -28.76123047 82.53564453 C-17.19343163 80.36321949 -8.21613948 74.66125298 -1.359375 65.15234375 C2.31546055 59.32733847 4.6397781 53.75077305 5.109375 46.82421875 C5.17253906 45.95152344 5.23570312 45.07882812 5.30078125 44.1796875 C5.7796498 32.39334224 2.61594512 22.47992953 -4.6953125 13.19921875 C-10.88718313 6.5005402 -18.34281438 3.55671559 -26.890625 0.82421875 C-27.880625 0.49421875 -28.870625 0.16421875 -29.890625 -0.17578125 C-46.91100723 -1.53494063 -63.77298094 0.51515165 -75.890625 13.82421875 Z " fill="#FF924F" transform="translate(523.890625,553.17578125)"/>
<path d="M0 0 C2.96105011 1.04709558 2.96105011 1.04709558 9.23828125 0.69921875 C6.59828125 6.63921875 3.95828125 12.57921875 1.23828125 18.69921875 C0.24828125 18.69921875 -0.74171875 18.69921875 -1.76171875 18.69921875 C-1.82101562 18.10109375 -1.8803125 17.50296875 -1.94140625 16.88671875 C-3.45311597 12.85549284 -7.49490868 11.88083424 -11.20703125 10.16015625 C-27.03584644 3.65468715 -46.40557914 1.36856903 -62.76171875 7.69921875 C-67.30342278 10.23660269 -70.81811508 12.75691228 -72.76171875 17.69921875 C-73.2843696 20.77460637 -73.29002219 23.62295185 -72.76171875 26.69921875 C-68.44376861 32.71817955 -62.50767145 34.49985529 -55.53125 35.6875 C-47.19247904 37.03164688 -38.78944696 37.67775071 -30.37792969 38.37646484 C-15.62926563 39.61399643 -15.62926563 39.61399643 -8.76171875 41.69921875 C-7.86324219 41.97121094 -6.96476562 42.24320313 -6.0390625 42.5234375 C0.72027456 45.01728306 5.55514048 48.26245384 9.33203125 54.5078125 C12.25657635 61.02034117 12.55837806 68.78238829 10.2890625 75.515625 C7.98583899 80.39090253 5.38099341 84.17791341 1.23828125 87.69921875 C0.47902344 88.34890625 -0.28023438 88.99859375 -1.0625 89.66796875 C-3.79799416 91.72651718 -6.29295009 93.01788593 -9.44921875 94.32421875 C-10.40183594 94.72898437 -11.35445313 95.13375 -12.3359375 95.55078125 C-33.39577679 102.61075018 -57.96668046 100.60541136 -77.69921875 90.94921875 C-78.86324219 90.335625 -80.02726562 89.72203125 -81.2265625 89.08984375 C-85.46252232 87.42354353 -88.25735149 87.44210887 -92.76171875 87.69921875 C-91.34102073 84.54552753 -89.89742298 81.40286249 -88.44921875 78.26171875 C-88.04509766 77.36388672 -87.64097656 76.46605469 -87.22460938 75.54101562 C-86.82822266 74.68701172 -86.43183594 73.83300781 -86.0234375 72.953125 C-85.66209717 72.16236572 -85.30075684 71.37160645 -84.9284668 70.55688477 C-83.76171875 68.69921875 -83.76171875 68.69921875 -80.76171875 67.69921875 C-80.61734375 68.56546875 -80.47296875 69.43171875 -80.32421875 70.32421875 C-77.47592387 76.47653569 -72.17967963 78.7543853 -66.04296875 81.15234375 C-49.99367256 86.78155975 -29.06131606 89.69106344 -13.16796875 82.12890625 C-8.5071248 79.35963858 -4.9051188 76.85855338 -2.76171875 71.69921875 C-1.97247622 67.05514956 -2.03810644 63.73941145 -4.76171875 59.82421875 C-13.74797118 53.45895661 -24.97528871 52.51065981 -35.69921875 52.26171875 C-64.03050357 51.2179613 -64.03050357 51.2179613 -74.76171875 44.69921875 C-75.7053125 44.17908203 -75.7053125 44.17908203 -76.66796875 43.6484375 C-81.78608924 40.4929861 -84.92857279 36.43181993 -86.76171875 30.69921875 C-88.00234572 22.11821552 -87.63322375 14.94591557 -82.51171875 7.7734375 C-62.86043809 -15.51859382 -24.9440996 -11.88485348 0 0 Z " fill="#FF9350" transform="translate(395.76171875,549.30078125)"/>
<path d="M0 0 C3.76453535 1.29893001 6.26276517 0.90244296 10.11328125 0.07421875 C8.63319429 5.07535469 6.48144765 9.40337472 3.98828125 13.94921875 C3.61574219 14.63757813 3.24320312 15.3259375 2.859375 16.03515625 C1.94828599 17.71716673 1.0313781 19.39602311 0.11328125 21.07421875 C-1.88671875 20.07421875 -1.88671875 20.07421875 -3.13671875 16.76171875 C-3.3275 16.16746094 -3.51828125 15.57320313 -3.71484375 14.9609375 C-7.77757227 8.41994458 -17.27658541 6.18291721 -24.37646484 4.51806641 C-36.60569904 2.35576843 -50.62910284 2.50845345 -61.88671875 8.07421875 C-62.72332031 8.48285156 -63.55992187 8.89148438 -64.421875 9.3125 C-70.80925019 12.66717022 -75.70649021 16.24347003 -79.57421875 22.44921875 C-80.15558594 23.36445313 -80.73695312 24.2796875 -81.3359375 25.22265625 C-86.54866667 34.80777538 -86.23753051 46.95616874 -84.234375 57.51171875 C-80.72737115 68.10798789 -73.52751826 75.69654735 -63.88671875 81.07421875 C-50.50474236 87.76520694 -34.34883736 86.35179507 -20.4453125 81.99609375 C-12.78762257 79.12086599 -6.68249259 75.86999259 -0.88671875 70.07421875 C-0.48624431 67.75146698 -0.14700835 65.41682518 0.11328125 63.07421875 C0.77328125 63.07421875 1.43328125 63.07421875 2.11328125 63.07421875 C3.67575044 64.95985519 5.12305702 66.84062774 6.55078125 68.82421875 C6.94587891 69.36304688 7.34097656 69.901875 7.74804688 70.45703125 C8.87387805 71.99310707 9.99371638 73.53356977 11.11328125 75.07421875 C11.70238281 75.821875 12.29148437 76.56953125 12.8984375 77.33984375 C14.11328125 79.07421875 14.11328125 79.07421875 14.11328125 81.07421875 C13.26765625 80.97753906 12.42203125 80.88085938 11.55078125 80.78125 C7.11084751 81.15965344 4.56650963 83.17703791 1.11328125 85.76171875 C-5.89252692 90.71683401 -12.55932104 93.78751915 -20.88671875 96.07421875 C-21.5422876 96.25605713 -22.19785645 96.43789551 -22.87329102 96.62524414 C-37.64774198 100.35424828 -55.23194752 100.11583338 -68.88671875 93.07421875 C-69.78003906 92.62820313 -70.67335937 92.1821875 -71.59375 91.72265625 C-85.66406333 83.98506459 -95.32913573 72.41318096 -99.88671875 57.07421875 C-103.17163195 45.27798007 -101.73778865 31.7112366 -95.88671875 21.07421875 C-86.73507122 6.0137901 -73.19212258 -3.63675998 -56.13671875 -7.92578125 C-36.75231738 -11.29602376 -17.55049789 -8.85025107 0 0 Z " fill="#FF9350" transform="translate(200.88671875,398.92578125)"/>
<path d="M0 0 C0.66 0 1.32 0 2 0 C2 6.93 2 13.86 2 21 C1.34 21 0.68 21 0 21 C-0.495 19.515 -0.495 19.515 -1 18 C-37.63 17.505 -37.63 17.505 -75 17 C-75 27.89 -75 38.78 -75 50 C-58.5 49.67 -42 49.34 -25 49 C-24.34 47.68 -23.68 46.36 -23 45 C-22.34 45 -21.68 45 -21 45 C-21 52.59 -21 60.18 -21 68 C-21.66 68 -22.32 68 -23 68 C-23.33 66.68 -23.66 65.36 -24 64 C-48.75 63.505 -48.75 63.505 -74 63 C-74 77.52 -74 92.04 -74 107 C-72.68 107 -71.36 107 -70 107 C-70 107.66 -70 108.32 -70 109 C-77.92 109 -85.84 109 -94 109 C-94 108.34 -94 107.68 -94 107 C-92.02 106.505 -92.02 106.505 -90 106 C-90 73.33 -90 40.66 -90 7 C-91.32 6.67 -92.64 6.34 -94 6 C-94 5.34 -94 4.68 -94 4 C-47.965 3.505 -47.965 3.505 -1 3 C-0.67 2.01 -0.34 1.02 0 0 Z " fill="#FF9350" transform="translate(606,387)"/>
<path d="M0 0 C0.66 0 1.32 0 2 0 C2.66 1.32 3.32 2.64 4 4 C35.68 4 67.36 4 100 4 C100.66 2.68 101.32 1.36 102 0 C102.66 0 103.32 0 104 0 C104 7.59 104 15.18 104 23 C103.34 23 102.68 23 102 23 C101.01 21.02 101.01 21.02 100 19 C79.705 18.505 79.705 18.505 59 18 C59.33 47.37 59.66 76.74 60 107 C61.32 107.33 62.64 107.66 64 108 C64 108.66 64 109.32 64 110 C56.08 110 48.16 110 40 110 C40 109.34 40 108.68 40 108 C41.98 107.505 41.98 107.505 44 107 C44.33 77.63 44.66 48.26 45 18 C31.47 18.33 17.94 18.66 4 19 C3.34 20.32 2.68 21.64 2 23 C1.34 23 0.68 23 0 23 C0 15.41 0 7.82 0 0 Z " fill="#FF924F" transform="translate(880,386)"/>
<path d="M0 0 C7.92 0 15.84 0 24 0 C24 0.66 24 1.32 24 2 C22.68 2.33 21.36 2.66 20 3 C19.67 32.37 19.34 61.74 19 92 C43.75 91.67 68.5 91.34 94 91 C94.99 89.02 94.99 89.02 96 87 C96.66 87 97.32 87 98 87 C98 94.92 98 102.84 98 111 C97.34 111 96.68 111 96 111 C95.64685226 110.18860062 95.29370453 109.37720123 94.92985535 108.54121399 C93.12728511 105.56277597 93.12728511 105.56277597 89.1085968 105.36076355 C87.44680284 105.32846844 85.78433837 105.32388373 84.12231445 105.34057617 C83.21479431 105.33009247 82.30727417 105.31960876 81.37225342 105.30880737 C78.36891827 105.27997776 75.36673042 105.28635817 72.36328125 105.29296875 C70.2824712 105.27985852 68.2016739 105.26455638 66.12089539 105.24714661 C60.64144208 105.20720493 55.16232098 105.19710024 49.68273926 105.19311523 C44.09242618 105.18380108 38.50230971 105.14639835 32.91210938 105.11132812 C21.94141551 105.04665888 10.97086778 105.01349536 0 105 C0 104.34 0 103.68 0 103 C1.98 102.505 1.98 102.505 4 102 C4 69.33 4 36.66 4 3 C2.68 2.67 1.36 2.34 0 2 C0 1.34 0 0.68 0 0 Z " fill="#FF924E" transform="translate(564,542)"/>
<path d="M0 0 C7.52625331 -0.09206426 15.05053558 -0.17163782 22.5769043 -0.21972656 C25.13458901 -0.23978303 27.69222821 -0.26703505 30.24975586 -0.30175781 C33.93614975 -0.35053672 37.62193484 -0.37302945 41.30859375 -0.390625 C42.44332626 -0.41127014 43.57805878 -0.43191528 44.74717712 -0.45318604 C51.59020886 -0.45509955 57.13040174 0.28690865 63 4 C67.8091167 9.04957253 68.29949397 12.45876213 68.2109375 19.2421875 C67.8149054 24.41994056 65.79730208 27.47805315 62 30.8125 C57.97697781 33.74595368 55.36602658 34.12441804 50.51879883 34.11352539 C49.39786331 34.11344986 48.2769278 34.11337433 47.12202454 34.11329651 C45.91257675 34.10813522 44.70312897 34.10297394 43.45703125 34.09765625 C42.21829758 34.0962413 40.9795639 34.09482635 39.70329285 34.09336853 C36.41368463 34.08871602 33.1241254 34.0797339 29.83453369 34.06866455 C26.47628388 34.05842629 23.11802667 34.05381092 19.75976562 34.04882812 C13.17313798 34.03864157 6.58663193 34.01906712 0 34 C0 22.78 0 11.56 0 0 Z " fill="#FFF3EC" transform="translate(781,404)"/>
</svg>
